Coordinates
version=1
nRows=10
nColumns=33
inDegrees=yes

Units are S.I. units (second, meters, Newtons, ...)
Angles are in degrees.

endheader
time	ground_thorax_rot_x	ground_thorax_rot_y	ground_thorax_rot_z	ground_thorax_tx	ground_thorax_ty	ground_thorax_tz	clav_prot_r	clav_elev_r	scapula_abduction_r	scapula_elevation_r	scapula_upward_rot_r	scapula_winging_r	shoulder_elv_r	plane_of_elev_r	axial_rot_r	elbow_flexion_r	pro_sup_r	wrist_flex_r	wrist_dev_r	clav_prot_l	clav_elev_l	scapula_abduction_l	scapula_elevation_l	scapula_upward_rot_l	scapula_winging_l	shoulder_elv_l	plane_of_elev_l	axial_rot_l	elbow_flexion_l	pro_sup_l	wrist_flex_l	wrist_dev_l
      6.47000000	     38.38266441	     10.92696131	     16.58880719	   -251.23198773	    830.81696068	      8.96943534	     14.75638707	     37.68151609	     37.56962223	     45.00000000	    -45.00000000	   3510.96367270	  -3531.22646357	     26.89753674	   -179.99999979	   1439.20035439	   -167.46204765	     21.03887201	     11.00901485	     10.19459891	    -45.00000000	    -36.12407285	     45.00000000	    -45.00000000	  -2418.97665934	   -645.40684812	     21.40977343	    -32.83133770	   1809.49884063	     27.34762305	      5.49254899	    -22.69180115
      6.48000000	     38.46550359	     10.80752763	     16.45238492	   -250.21075836	    830.74770373	      9.04290823	     14.83599325	     37.67339422	     37.76162063	     45.00000000	    -45.00000000	   3510.83251478	  -3531.31480327	     27.02420276	   -179.99999979	   1438.92671119	   -168.19162670	     21.01091255	     11.06816010	     10.13358399	    -45.00000000	    -36.01849011	     45.00000000	    -45.00000000	  -2419.15581533	   -645.44765720	     21.57631828	    -32.43491105	   1809.46491060	     26.88919414	      5.59275061	    -22.67935988
      6.49000000	     38.49091496	     10.78561180	     16.38006316	   -249.00543129	    830.67244490	      9.12998247	     14.88931581	     37.66436543	     37.79213540	     45.00000000	    -45.00000000	   3510.84038130	  -3531.29369036	     27.20292670	   -179.99999979	   1438.79133372	   -168.95998457	     20.94473465	     11.12337360	     10.16976802	    -45.00000000	    -35.99616961	     45.00000000	    -45.00000000	  -2419.30652546	   -645.45928189	     21.73865925	    -31.99272827	   1809.48091425	     26.39470392	      5.66895675	    -22.65277931
      6.50000000	     38.53605867	     10.80637808	     16.32380407	   -247.61086338	    830.59674944	      9.22752538	     14.93852601	     37.67029402	     37.88576776	     45.00000000	    -45.00000000	   3510.85022845	  -3531.21360446	     27.30470222	   -179.99999979	   1438.66539234	   -169.77121511	     20.86803853	     11.16911846	     10.18846813	    -45.00000000	    -35.99844255	     45.00000000	    -45.00000000	  -2419.47688661	   -645.47182495	     21.89619087	    -31.54925974	   1809.51335174	     25.89070988	      5.74238686	    -22.62155781
      6.51000000	     38.53937386	     10.79596707	     16.28614303	   -246.02065594	    830.52602736	      9.33389047	     15.21881918	     37.85965147	     38.10779035	     45.00000000	    -45.00000000	   3510.94362829	  -3531.26568555	     27.30539498	   -179.99999979	   1438.59811812	   -170.69427947	     20.77769320	     11.27857430	      9.93976316	    -45.00000000	    -36.04411400	     45.00000000	    -45.00000000	  -2419.68141554	   -645.42841606	     21.94924129	    -30.99647246	   1809.60496603	     25.30282995	      5.82587339	    -22.60067163
      6.52000000	     38.57408829	     10.82686866	     16.26221595	   -244.22758663	    830.46526091	      9.44875811	     15.20843303	     37.83437517	     38.24317651	     45.00000000	    -45.00000000	   3511.04366002	  -3531.17515956	     27.34004018	   -179.99999979	   1438.36832457	   -171.65836612	     20.69221313	     11.34007663	     10.00654828	    -45.00000000	    -36.07140635	     45.00000000	    -45.00000000	  -2419.84479270	   -645.46250727	     22.11863389	    -30.56962197	   1809.66898686	     24.74609318	      5.91904928	    -22.56646982
      6.53000000	     38.60667610	     10.76683447	     16.08293593	   -242.22828920	    830.41777514	      9.57254714	     15.15840100	     37.77632339	     38.29511777	     45.00000000	    -45.00000000	   3511.16949784	  -3531.05913412	     27.50575492	   -179.99999979	   1438.16757697	   -172.60465245	     20.58715702	     11.39247718	     10.13081283	    -45.00000000	    -36.21698987	     45.00000000	    -44.68342625	  -2420.01464988	   -645.52454243	     22.24258484	    -30.22731652	   1809.69555638	     24.23089057	      6.04722721	    -22.53811640
      6.54000000	     38.60841364	     10.75321516	     15.96054119	   -240.02193936	    830.38385200	      9.70601960	     15.34912476	     37.88629856	     38.49731427	     45.00000000	    -45.00000000	   3511.32849018	  -3531.00492159	     27.51056147	   -179.99999979	   1437.96071214	   -173.70271976	     20.47020612	     11.50648823	      9.97722081	    -45.00000000	    -36.38436354	     45.00000000	    -44.23127547	  -2420.19495030	   -645.48426581	     22.26496047	    -29.86909435	   1809.82201645	     23.64664814	      6.17102374	    -22.51948812
      6.55000000	     38.66277559	     10.71949239	     15.82859247	   -237.60615975	    830.36051224	      9.85009254	     15.45534858	     37.92530404	     38.73511167	     45.00000000	    -45.00000000	   3511.38879911	  -3530.86960837	     27.61419361	   -179.99999979	   1437.68498299	   -174.85510757	     20.34449024	     11.64208520	      9.96526481	    -45.00000000	    -36.51204268	     45.00000000	    -43.83579507	  -2420.40886967	   -645.50717852	     22.35641435	    -29.41699227	   1809.86549871	     23.00677825	      6.30848880	    -22.46542745
      6.56000000	     38.68305698	     10.64893393	     15.63847506	   -234.97677314	    830.33945228	     10.00568727	     15.13392993	     37.69253137	     38.81186236	     45.00000000	    -45.00000000	   3511.59749439	  -3530.76980965	     27.76769489	   -179.99999979	   1437.43928531	   -175.94879149	     20.18654507	     11.70527726	     10.28006823	    -45.00000000	    -36.68234590	     45.00000000	    -43.29731674	  -2420.58375981	   -645.61675433	     22.52601179	    -29.19884347	   1809.82184809	     22.44118562	      6.46189789	    -22.38650032
